<svg width="335" height="124" viewBox="0 0 335 124" fill="none" xmlns="http://www.w3.org/2000/svg">
<path d="M276.862 2H306V11.0102H287.546V27.6789H302.212V36.6891H287.546V56.0609H306V65.0711H276.862V2Z" fill="black" stroke="black" stroke-width="3"/>
<path d="M236.958 2H247.739L254.732 50.9251H254.927L261.92 2H271.73L261.434 65.0711H247.253L236.958 2Z" fill="black" stroke="black" stroke-width="3"/>
<path d="M221.089 2H231.773V65.0711H221.089V2Z" fill="black" stroke="black" stroke-width="3"/>
<path d="M194.062 11.0102H182.893V2H215.916V11.0102H204.746V65.0711H194.062V11.0102Z" fill="black" stroke="black" stroke-width="3"/>
<path d="M148.053 2H163.788C169.098 2 173.08 3.32149 175.735 5.96447C178.39 8.60745 179.717 12.4818 179.717 17.5876V23.8046C179.717 28.9103 178.39 32.7847 175.735 35.4277C173.08 38.0707 169.098 39.3921 163.788 39.3921H158.737V65.0711H148.053V2ZM163.788 30.382C165.536 30.382 166.831 29.9315 167.673 29.0305C168.58 28.1294 169.033 26.5977 169.033 24.4353V16.9569C169.033 14.7944 168.58 13.2627 167.673 12.3617C166.831 11.4607 165.536 11.0102 163.788 11.0102H158.737V30.382H163.788Z" fill="black" stroke="black" stroke-width="3"/>
<path d="M117.325 2H131.797L142.87 65.0711H132.186L130.243 52.547V52.7272H118.102L116.159 65.0711H106.252L117.325 2ZM128.98 44.1675L124.221 12.9924H124.027L119.365 44.1675H128.98Z" fill="black" stroke="black" stroke-width="3"/>
<path d="M69.8007 2H86.1182C91.4279 2 95.4101 3.32149 98.065 5.96447C100.72 8.60745 102.047 12.4818 102.047 17.5876V49.4835C102.047 54.5893 100.72 58.4636 98.065 61.1066C95.4101 63.7496 91.4279 65.0711 86.1182 65.0711H69.8007V2ZM85.924 56.0609C87.6723 56.0609 88.9997 55.5804 89.9062 54.6193C90.8775 53.6582 91.3631 52.0965 91.3631 49.934V17.1371C91.3631 14.9746 90.8775 13.4129 89.9062 12.4518C88.9997 11.4907 87.6723 11.0102 85.924 11.0102H80.4848V56.0609H85.924Z" fill="black" stroke="black" stroke-width="3"/>
<path d="M39.0726 2H53.5447L64.6172 65.0711H53.9332L51.9906 52.547V52.7272H39.8496L37.9071 65.0711H28L39.0726 2ZM50.7279 44.1675L45.9687 12.9924H45.7744L41.1123 44.1675H50.7279Z" fill="black" stroke="black" stroke-width="3"/>
<path d="M38.5 79.5L296.021 80.4768" stroke="black" stroke-width="16"/>
<circle cx="61" cy="108" r="9" stroke="black" stroke-width="14"/>
<circle cx="277" cy="108" r="9" stroke="black" stroke-width="14"/>
<path d="M332.406 71.8972C335.663 68.9117 335.883 63.8512 332.897 60.5942C329.912 57.3373 324.851 57.1172 321.594 60.1028L332.406 71.8972ZM296 88.5C302.458 88.5 308.384 87.4511 314.477 84.6387C320.415 81.8984 326.115 77.6642 332.406 71.8972L321.594 60.1028C315.885 65.3358 311.585 68.3516 307.773 70.1113C304.116 71.7989 300.542 72.5 296 72.5V88.5Z" fill="black"/>
<path d="M2.5942 70.8972C-0.662749 67.9117 -0.882772 62.8512 2.10277 59.5942C5.08831 56.3373 10.1488 56.1172 13.4058 59.1028L2.5942 70.8972ZM39 87.5C32.5423 87.5 26.6161 86.4511 20.5225 83.6387C14.5852 80.8984 8.88541 76.6642 2.5942 70.8972L13.4058 59.1028C19.1146 64.3358 23.4148 67.3516 27.2275 69.1113C30.8839 70.7989 34.4577 71.5 39 71.5V87.5Z" fill="black"/>
</svg>
